<svg 
id="e1S5auHTzDy1" 
xmlns="http://www.w3.org/2000/svg" 
xmlns:xlink="http://www.w3.org/1999/xlink" 
viewBox="0 0 600 600" shape-rendering="geometricPrecision" 
text-rendering="geometricPrecision"><polygon points="0,-147.725918 43.415558,-59.756389 140.495697,-45.649819 70.247848,22.82491 86.831116,119.512778 0,73.862959 -86.831116,119.512778 -70.247848,22.82491 -140.495697,-45.649819 -43.415558,-59.756389 0,-147.725918" transform="translate(194.932214 184.958037)" fill="#d2dbed" stroke-width="0"/><polygon points="0,-98.010956 28.804697,-39.646265 93.213959,-30.287051 46.606979,15.143526 57.609395,79.292529 0,49.005478 -57.609395,79.292529 -46.606979,15.143526 -93.213959,-30.287051 -28.804697,-39.646265 0,-98.010956" transform="matrix(-.612572 0.790415-.790415-.612572 205.584248 197.546804)" fill="#d2dbed" stroke-width="0"/><polygon points="0,-60 17.633558,-24.27051 57.063391,-18.54102 28.531695,9.27051 35.267115,48.54102 0,30 -35.267115,48.54102 -28.531695,9.27051 -57.063391,-18.54102 -17.633558,-24.27051 0,-60" transform="translate(180.406714 176.242737)" fill="#d2dbed" stroke-width="0"/><polygon points="0,-60 17.633558,-24.27051 57.063391,-18.54102 28.531695,9.27051 35.267115,48.54102 0,30 -35.267115,48.54102 -28.531695,9.27051 -57.063391,-18.54102 -17.633558,-24.27051 0,-60" transform="translate(212.981912 276.95771)" fill="#d2dbed" stroke-width="0"/><polygon points="0,-60 17.633558,-24.27051 57.063391,-18.54102 28.531695,9.27051 35.267115,48.54102 0,30 -35.267115,48.54102 -28.531695,9.27051 -57.063391,-18.54102 -17.633558,-24.27051 0,-60" transform="translate(340.153813 419.302776)" fill="#d2dbed" stroke-width="0"/><polygon points="0,-60 17.633558,-24.27051 57.063391,-18.54102 28.531695,9.27051 35.267115,48.54102 0,30 -35.267115,48.54102 -28.531695,9.27051 -57.063391,-18.54102 -17.633558,-24.27051 0,-60" transform="translate(155.881682 431.891543)" fill="#d2dbed" stroke-width="0"/><polygon points="0,-60 17.633558,-24.27051 57.063391,-18.54102 28.531695,9.27051 35.267115,48.54102 0,30 -35.267115,48.54102 -28.531695,9.27051 -57.063391,-18.54102 -17.633558,-24.27051 0,-60" transform="translate(387.637185 231.439638)" fill="#d2dbed" stroke-width="0"/></svg>
